<?xml version="1.0" encoding="utf-8"?>
<!-- Generator: Adobe Illustrator 19.2.0, SVG Export Plug-In . SVG Version: 6.00 Build 0)  -->
<svg version="1.1" id="Capa_1" xmlns="http://www.w3.org/2000/svg" xmlns:xlink="http://www.w3.org/1999/xlink" x="0px" y="0px"
	 viewBox="0 0 512 512" style="enable-background:new 0 0 512 512;" xml:space="preserve">
<style type="text/css">
	.st0{fill:#E7B116;}
</style>
<g>
	<g>
		<path class="st0" d="M428.2,0H83.8c-7.7,0-14,6.2-14,14v484c0,7.7,6.2,14,14,14h344.3c7.7,0,14-6.2,14-14V14
			C442.2,6.4,435.9,0,428.2,0z M156.5,461.9c-19.8,0-35.9-16.1-35.9-35.9s16.1-35.9,35.9-35.9s35.9,16.1,35.9,35.9
			C192.4,445.8,176.3,461.9,156.5,461.9z M156.5,363.8c-19.8,0-35.9-16.1-35.9-35.9s16.1-35.9,35.9-35.9s35.9,16.1,35.9,35.9
			C192.4,347.7,176.3,363.8,156.5,363.8z M156.5,273.1c-19.8,0-35.9-16.1-35.9-35.9c0-19.8,16.1-35.9,35.9-35.9s35.9,16.1,35.9,35.9
			C192.4,257,176.3,273.1,156.5,273.1z M256.4,292c19.8,0,35.9,16.1,35.9,35.9c0,19.8-16.1,35.9-35.9,35.9
			c-19.8,0-35.9-16.1-35.9-35.9C220.5,308.1,236.7,292,256.4,292z M220.7,237.2c0-19.8,16.1-35.9,35.9-35.9
			c19.8,0,35.8,16.2,35.8,35.9s-16.1,35.9-35.9,35.9C236.7,273.1,220.7,257,220.7,237.2z M256.5,461.9c-19.8,0-35.9-16.1-35.9-35.9
			s16.1-35.9,35.9-35.9s35.9,16.1,35.9,35.9S276.3,461.9,256.5,461.9z M356.5,461.9c-19.8,0-35.9-16.1-35.9-35.9
			s16.1-35.9,35.9-35.9s35.9,16.1,35.9,35.9C392.4,445.8,376.3,461.9,356.5,461.9z M356.5,363.8c-19.8,0-35.9-16.2-35.9-35.9
			c0-19.7,16.1-35.9,35.9-35.9s35.9,16.1,35.9,35.9C392.4,347.7,376.3,363.8,356.5,363.8z M356.5,273.1c-19.8,0-35.9-16.1-35.9-35.9
			c0-19.8,16.1-35.9,35.9-35.9s35.9,16.1,35.9,35.9C392.4,257,376.3,273.1,356.5,273.1z M395.7,163c0,7.7-6.2,14-14,14H130.4
			c-7.7,0-14-6.2-14-14V60.6c0-7.7,6.2-14,14-14h251.3c7.7,0,14,6.2,14,14V163z"/>
		<path class="st0" d="M337.2,71c-20.8,0-34.8,17.7-34.8,40.4v0.2c0,22.7,13.7,40.2,34.6,40.2c20.9,0,34.8-17.7,34.8-40.4v-0.2
			C371.8,88.5,357.9,71,337.2,71z M354.2,111.6c0,14.2-6.6,24.6-17,24.6c-10.4,0-17.2-10.6-17.2-24.8v-0.2c0-14.3,6.7-24.6,17-24.6
			s17.2,10.7,17.2,24.8V111.6L354.2,111.6z"/>
	</g>
</g>
</svg>
