<?xml version="1.0" encoding="utf-8"?>
<!-- Generator: Adobe Illustrator 19.2.0, SVG Export Plug-In . SVG Version: 6.00 Build 0)  -->
<svg version="1.1" id="Calque_1" xmlns="http://www.w3.org/2000/svg" xmlns:xlink="http://www.w3.org/1999/xlink" x="0px" y="0px"
	 viewBox="0 0 512 512" style="enable-background:new 0 0 512 512;" xml:space="preserve">
<style type="text/css">
	.st0{fill:#E7B116;}
</style>
<g>
	<g>
		<path class="st0" d="M268,120.5c-18.1-6-39.2,0-54.2,12c-15.1,12-24.1,30.1-24.1,51.2c0,9,6,15.1,15.1,15.1c9,0,15.1-6,15.1-15.1
			c0-9,3-21.1,12-27.1c9-6,18.1-9,30.1-6c15.1,3,24.1,15.1,27.1,27.1c3,15.1,0,27.1-12,36.1c-24.1,18.1-36.1,45.2-36.1,72.3
			c0,9,6,15.1,15.1,15.1c9,0,15.1-6,12-15.1c0-18.1,12-36.1,27.1-48.2c21.1-18.1,30.1-42.2,24.1-66.3
			C313.2,144.6,292.1,126.5,268,120.5L268,120.5z"/>
		<path class="st0" d="M244,364.4c-3,3-3,9-3,12s0,6,3,9c3,3,9,6,12,6c3,0,9-3,9-6c3,0,6-6,6-9c0-6-3-9-6-12
			C259,358.4,250,358.4,244,364.4L244,364.4z"/>
		<path class="st0" d="M256,0C114.4,0,0,114.4,0,256s114.4,256,256,256s256-114.4,256-256S397.6,0,256,0z M256,481.9
			C132.5,481.9,30.1,379.5,30.1,256S132.5,30.1,256,30.1S481.9,132.5,481.9,256S379.5,481.9,256,481.9z"/>
	</g>
</g>
</svg>
