<?xml version="1.0" encoding="utf-8"?>
<!-- Generator: Adobe Illustrator 19.2.0, SVG Export Plug-In . SVG Version: 6.00 Build 0)  -->
<svg version="1.1" id="Capa_1" xmlns="http://www.w3.org/2000/svg" xmlns:xlink="http://www.w3.org/1999/xlink" x="0px" y="0px"
	 viewBox="0 0 512 512" style="enable-background:new 0 0 512 512;" xml:space="preserve">
<style type="text/css">
	.st0{fill:#E7B116;}
</style>
<g>
	<path class="st0" d="M172.3,311.4c1.3,6.2,3,12.1,5.1,18H0V11.1h18v300.3H172.3z M243.1,162.5l24.5-58.1l26.2,11l-9.9-78.8
		l-63.3,48l26,10.9l-28.5,67.8l-39.2-45.3l-40.9,77.7l-41-39.7L50.3,262.4l20.8,9.1l33.6-76.3l39.3,38.1l39.5-75l25.3,29.3
		C218.9,177.4,230.4,168.9,243.1,162.5z M509.3,451.1l-81.4-89.7c-3.2-3.5-8.1-3.6-12.2-1.7c-10.8,15.7-24.8,28.8-40.8,38.6
		c-0.8,3.3-0.5,6.8,1.9,9.4l81.4,89.6c3.9,4.3,10.6,4.7,15,0.7l35.3-32C512.9,462.2,513.2,455.5,509.3,451.1z M421.8,283.1
		c0,12.8-2.1,25.7-6.5,38.5c-21.2,61.3-88,93.7-149.3,72.5c-48.6-16.8-79-62.2-79-110.9c0-12.7,2-25.6,6.5-38.4
		c21.2-61.2,88-93.7,149.3-72.5C391.3,189,421.8,234.5,421.8,283.1z M389.9,283.1c0-36.4-23.1-68.9-57.6-80.8
		c-21.6-7.4-44.8-6.1-65.4,3.9c-20.5,10-36,27.4-43.4,48.9c-3.2,9.1-4.7,18.5-4.7,28c0,36.4,23.1,69,57.6,80.8
		c21.5,7.5,44.8,6.1,65.4-3.9c20.5-9.9,35.9-27.4,43.4-49C388.4,302.1,389.9,292.7,389.9,283.1z"/>
</g>
</svg>
