<?xml version="1.0" encoding="utf-8"?>
<!-- Generator: Adobe Illustrator 16.0.0, SVG Export Plug-In . SVG Version: 6.00 Build 0)  -->
<!DOCTYPE svg PUBLIC "-//W3C//DTD SVG 1.1//EN" "http://www.w3.org/Graphics/SVG/1.1/DTD/svg11.dtd">
<svg version="1.1" id="Calque_1" xmlns="http://www.w3.org/2000/svg" xmlns:xlink="http://www.w3.org/1999/xlink" x="0px" y="0px"
	 width="150px" height="150px" viewBox="0 0 150 150" enable-background="new 0 0 150 150" xml:space="preserve">
<g>
	<path fill="#3D4F97" d="M55.381,92.659c3.839-18.104,21.443-31.188,46.783-31.188c2.654,0,5.219,0.187,7.736,0.472
		c0.016-0.436,0.088-0.846,0.088-1.309c0-19.141-23.189-34.651-51.775-34.651c-28.604,0-51.789,15.511-51.789,34.651
		c0,8.688,4.814,16.629,12.715,22.713C15.202,88.4,9.787,92.244,3.529,94.203c2.338,0.708,4.828,1.105,7.411,1.105
		c6.551,0,12.505-2.508,16.994-6.583c8.238,3.994,15.947,5.816,26.831,5.994C54.713,94.118,55.252,93.259,55.381,92.659z"/>
	<path fill="#E7B116" d="M134.432,114.81c6.098-4.676,9.803-10.786,9.803-17.48c0-14.736-17.857-26.693-39.881-26.693
		c-22.016,0-39.861,11.957-39.861,26.693c0,14.741,17.846,26.688,39.861,26.688c8.725,0,16.764-1.888,23.314-5.071
		c3.465,3.14,8.043,5.071,13.094,5.071c1.977,0,3.893-0.293,5.709-0.858C141.639,121.668,137.465,118.706,134.432,114.81z
		 M89.137,102.113c-2.641,0-4.783-2.151-4.783-4.784c0-2.636,2.143-4.791,4.783-4.791c2.654,0,4.797,2.155,4.797,4.791
		C93.934,99.962,91.791,102.113,89.137,102.113z M105.473,102.113c-2.646,0-4.779-2.151-4.779-4.784
		c0-2.636,2.133-4.791,4.779-4.791c2.65,0,4.795,2.155,4.795,4.791C110.268,99.962,108.123,102.113,105.473,102.113z
		 M121.816,102.113c-2.658,0-4.801-2.151-4.801-4.784c0-2.636,2.143-4.791,4.801-4.791c2.65,0,4.783,2.155,4.783,4.791
		C126.6,99.962,124.467,102.113,121.816,102.113z"/>
</g>
</svg>
