<?xml version="1.0" encoding="utf-8"?>
<!-- Generator: Adobe Illustrator 16.0.0, SVG Export Plug-In . SVG Version: 6.00 Build 0)  -->
<!DOCTYPE svg PUBLIC "-//W3C//DTD SVG 1.1//EN" "http://www.w3.org/Graphics/SVG/1.1/DTD/svg11.dtd">
<svg version="1.1" id="Calque_1" xmlns="http://www.w3.org/2000/svg" xmlns:xlink="http://www.w3.org/1999/xlink" x="0px" y="0px"
	 width="150px" height="150px" viewBox="0 0 150 150" enable-background="new 0 0 150 150" xml:space="preserve">
<g>
	<g>
		<g>
			<path fill="#3D4F97" d="M123.643,108.061l-25.77-22.804c-0.586-0.533-1.235-0.917-1.912-1.236
				c3.334-5.713,5.246-12.351,5.246-19.443c0-21.364-17.319-38.684-38.682-38.684c-21.365,0-38.687,17.319-38.687,38.684
				c0,21.367,17.321,38.687,38.687,38.687c7.713,0,14.895-2.266,20.931-6.158c0.409,0.802,0.946,1.555,1.653,2.197l25.769,22.804
				c3.144,2.859,8.009,2.623,10.868-0.521l2.417-2.657C127.019,115.785,126.786,110.923,123.643,108.061z M62.525,88.278
				c-13.09,0-23.699-10.609-23.699-23.701c0-13.089,10.609-23.699,23.699-23.699c13.087,0,23.696,10.61,23.696,23.699
				C86.222,77.669,75.612,88.278,62.525,88.278z"/>
		</g>
	</g>
	<path fill="#E7B116" stroke="#E7B116" stroke-width="3" stroke-miterlimit="10" d="M58.196,73.388l-7.711-7.712l-2.57,2.571
		l10.281,10.282l22.035-22.034l-2.572-2.57L58.196,73.388z"/>
</g>
</svg>
