<?xml version="1.0" encoding="utf-8"?>
<!-- Generator: Adobe Illustrator 16.0.0, SVG Export Plug-In . SVG Version: 6.00 Build 0)  -->
<!DOCTYPE svg PUBLIC "-//W3C//DTD SVG 1.1//EN" "http://www.w3.org/Graphics/SVG/1.1/DTD/svg11.dtd">
<svg version="1.1" id="Calque_1" xmlns="http://www.w3.org/2000/svg" xmlns:xlink="http://www.w3.org/1999/xlink" x="0px" y="0px"
	 width="53.5px" height="103.125px" viewBox="0 0 53.5 103.125" enable-background="new 0 0 53.5 103.125" xml:space="preserve">
<path fill="#FFFFFF" stroke="#1D1D1B" stroke-miterlimit="10" d="M45.044,47.487c0,7.235-6.716,13.101-15,13.101h-5.564
	c-8.284,0-15-5.865-15-13.101V18.875c0-7.235,6.716-13.1,15-13.1h5.564c8.284,0,15,5.865,15,13.1V47.487z"/>
<g>
	<g>
		<path fill="#1D1D1B" d="M26.587,14.77c0,3.557,0,7.113,0,10.669c0,0.871,1.35,0.871,1.35,0c0-3.557,0-7.113,0-10.669
			C27.937,13.899,26.587,13.899,26.587,14.77L26.587,14.77z"/>
	</g>
</g>
<g>
	<g>
		<path fill="#1D1D1B" stroke="#1D1D1B" stroke-width="0.4877" stroke-linecap="round" stroke-miterlimit="10" d="M27.037,76.419
			c-0.12-0.121-0.119-0.316,0.001-0.437l6.696-6.669c0.12-0.12,0.316-0.119,0.437,0.001l0,0c0.12,0.121,0.12,0.316-0.002,0.436
			l-6.696,6.669C27.352,76.539,27.156,76.539,27.037,76.419L27.037,76.419z"/>
		<path fill="#1D1D1B" stroke="#1D1D1B" stroke-width="0.4877" stroke-linecap="round" stroke-miterlimit="10" d="M20.336,69.313
			c0.12-0.12,0.315-0.119,0.436,0.002l6.669,6.695c0.121,0.12,0.12,0.316-0.001,0.436l0,0c-0.121,0.12-0.315,0.12-0.436-0.001
			l-6.668-6.696C20.215,69.627,20.215,69.433,20.336,69.313L20.336,69.313z"/>
	</g>
	<g>
		<path fill="#1D1D1B" stroke="#1D1D1B" stroke-width="0.4877" stroke-linecap="round" stroke-miterlimit="10" d="M27.037,86.269
			c-0.12-0.121-0.119-0.316,0.001-0.437l6.696-6.669c0.12-0.12,0.316-0.119,0.437,0.001l0,0c0.12,0.121,0.12,0.316-0.002,0.436
			l-6.696,6.669C27.352,86.389,27.156,86.389,27.037,86.269L27.037,86.269z"/>
		<path fill="#1D1D1B" stroke="#1D1D1B" stroke-width="0.4877" stroke-linecap="round" stroke-miterlimit="10" d="M20.336,79.162
			c0.12-0.12,0.315-0.119,0.436,0.002l6.669,6.695c0.12,0.12,0.119,0.316-0.002,0.436l0,0c-0.121,0.12-0.315,0.12-0.436-0.001
			l-6.669-6.696C20.215,79.477,20.215,79.282,20.336,79.162L20.336,79.162z"/>
	</g>
	<g>
		<path fill="#1D1D1B" stroke="#1D1D1B" stroke-width="0.4877" stroke-linecap="round" stroke-miterlimit="10" d="M27.037,96.118
			c-0.12-0.121-0.119-0.316,0.001-0.437l6.696-6.669c0.121-0.12,0.316-0.119,0.438,0.001l0,0c0.119,0.121,0.119,0.316-0.002,0.436
			l-6.697,6.669C27.352,96.238,27.156,96.238,27.037,96.118L27.037,96.118z"/>
		<path fill="#1D1D1B" stroke="#1D1D1B" stroke-width="0.4877" stroke-linecap="round" stroke-miterlimit="10" d="M20.336,89.012
			c0.12-0.12,0.315-0.119,0.436,0.002l6.669,6.695c0.12,0.12,0.119,0.316-0.002,0.436l0,0c-0.121,0.12-0.315,0.12-0.436-0.001
			l-6.669-6.696C20.215,89.326,20.215,89.132,20.336,89.012L20.336,89.012z"/>
	</g>
</g>
</svg>
