<?xml version="1.0" encoding="utf-8"?>
<!-- Generator: Adobe Illustrator 16.0.0, SVG Export Plug-In . SVG Version: 6.00 Build 0)  -->
<!DOCTYPE svg PUBLIC "-//W3C//DTD SVG 1.1//EN" "http://www.w3.org/Graphics/SVG/1.1/DTD/svg11.dtd">
<svg version="1.1" id="Calque_1" xmlns="http://www.w3.org/2000/svg" xmlns:xlink="http://www.w3.org/1999/xlink" x="0px" y="0px"
 viewBox="0 0 50 50" enable-background="new 0 0 50 50" xml:space="preserve">
<path fill="#FFFFFF" d="M26.795,17.81l-0.252-0.221c1.234-4.433,0.109-9.389-3.373-12.874c-3.465-3.454-8.359-4.586-12.768-3.392
	l7.463,7.461l-1.957,7.313l-7.311,1.954l-7.469-7.456c-1.186,4.406-0.059,9.303,3.406,12.766c3.627,3.628,8.854,4.692,13.424,3.207
	L18,26.607l30.707,30.703c1.213,1.213,2.803,1.826,4.395,1.826c1.594,0,3.18-0.613,4.402-1.826c2.43-2.42,2.43-6.357,0-8.797
	L26.795,17.81z"/>
</svg>
