<?xml version="1.0" encoding="utf-8"?>
<!-- Generator: Adobe Illustrator 16.0.0, SVG Export Plug-In . SVG Version: 6.00 Build 0)  -->
<!DOCTYPE svg PUBLIC "-//W3C//DTD SVG 1.1//EN" "http://www.w3.org/Graphics/SVG/1.1/DTD/svg11.dtd">
<svg version="1.1" id="Mode_Isolation" xmlns="http://www.w3.org/2000/svg" xmlns:xlink="http://www.w3.org/1999/xlink" x="0px"
	 y="0px" width="342.887px" height="594px" viewBox="0 0 342.887 594" enable-background="new 0 0 342.887 594"
	 xml:space="preserve">
<g>
	<defs>
		<rect id="SVGID_1_" x="-44.113" y="-206" width="800" height="800"/>
	</defs>
	<clipPath id="SVGID_2_">
		<use xlink:href="#SVGID_1_"  overflow="visible"/>
	</clipPath>
	<path clip-path="url(#SVGID_2_)" fill="#4154A1" d="M314.431,532.407c0,11.076-48.924,20.055-109.275,20.055
		s-109.275-8.979-109.275-20.055s48.924-20.056,109.275-20.056S314.431,521.331,314.431,532.407"/>
	<path clip-path="url(#SVGID_2_)" fill="#464B4C" d="M172.932,183.69c0,0,30.156-11.429,39.828-39.644
		c9.673-28.214-10.16-52.968-43.201-58.798c0,0,2.885-8.356,0-17.05c0,0,78.777,10.811,59.466,75.848
		c-15.127,50.948-50.13,53.433-50.13,53.433L172.932,183.69z"/>
	<path clip-path="url(#SVGID_2_)" fill="#FFDCB8" d="M150.558,90.444c0,0,19.529-0.675,22.374-4.523
		c2.845-3.848,2.253-19.779,5.963-25.469c3.71-5.689-0.084-9.483-5.963-5.31c-5.879,4.172-4.102,12.867-6.684,13.056
		c0,0-5.224-9.007-1.83-14.825c3.393-5.817-4.572-5.941-7.417,0c-2.845,5.941-0.488,14.825-0.488,14.825s-6.139-8.07-5.955-11.512
		c0.184-3.441-3.868-4.84-4.497,1.929c-0.629,6.768,4.497,14.924,4.497,14.924s0,8.337-1.443,8.789
		c-4.038,1.263-12.003-3.289-10.428,5.056C139.382,91.067,144.644,88.682,150.558,90.444"/>
	<path clip-path="url(#SVGID_2_)" fill="#CB8F5E" d="M158.104,84.321c0,0,2.121-7.918,8.881-6.638
		C166.985,77.683,156.167,72.562,158.104,84.321"/>
	<path clip-path="url(#SVGID_2_)" fill="#281D12" d="M220.34,515.09c0,0,8.056,8.787,15.33,7.796
		c7.273-0.993,13.619,0.077,13.619,0.077v8.008c0,0-30.141,2.649-34.901,0.752l-4.759-1.898c0,0-5.103,2.82-8.368,1.146
		c-3.265-1.676,1.399-20.078,1.399-20.078S214.448,510.173,220.34,515.09"/>
	<path clip-path="url(#SVGID_2_)" fill="#382B19" d="M201.599,516.64c0,0,3.271,9.482,8.03,12.126
		c4.759,2.645,20.094,2.584,20.094,2.584v10.047c0,0-30.67,4.291-41.246-3.641c0,0-5.309,2.645-10.85,0
		c-1.852-5.349,2.968-22.608,2.968-22.608S192.511,511.917,201.599,516.64"/>
	<path clip-path="url(#SVGID_2_)" fill="#464B4C" d="M246.468,313.967c0,0-15.313,156.705-26.128,201.123
		c0,0-5.665,3.707-18.607-0.072c0,0-3.321-147.531,0.306-165.511C205.666,331.528,230.245,297.575,246.468,313.967"/>
	<path clip-path="url(#SVGID_2_)" fill="#464B4C" d="M167.364,318.309c0,0,13.332,147.028,11.287,198.407
		c0,0,17.726,4.915,24.479-1.697c0,0,4.916-146.476,8.357-162.867c3.441-16.394,19.172-31.729,22.122-38.603
		C236.558,306.675,178.671,300.858,167.364,318.309"/>
	<path clip-path="url(#SVGID_2_)" fill="#232728" d="M222.186,330.471c0,0-9.757,10.029-12.238,37.251
		c-2.752,30.195-5.707,112.292-6.484,127.73c0,0,6.648-87.307,9.396-125.587C214.205,351.114,216.429,338.355,222.186,330.471"/>
	<path clip-path="url(#SVGID_2_)" fill="#464B4C" d="M121.321,202.784c0,0,47.062-17.297,53.937-19.894
		c0,0,60.81,78.661,74.03,134.806c0,0-16.585-3.465-21.873-1.879l-6.329-6.198l-0.129,7.848c0,0-49.93,10.36-57.333,13.003
		C163.625,330.47,155.692,253.3,121.321,202.784"/>
	<path clip-path="url(#SVGID_2_)" fill="#FFDCB8" d="M155.164,166.545c0,0,3.702,24.324,5.288,29.083
		c1.586,4.759-3.702,10.047-9.254,5.288c-5.552-4.76-10.84-24.742-12.426-29.028C137.185,167.604,155.164,166.545,155.164,166.545"
		/>
	<path clip-path="url(#SVGID_2_)" fill="#E5E5E5" d="M198.172,261.552c0,0-17.577-52.351-33.404-74.768c0,0-2.974,1.097-6.901,2.545
		l-0.059,1.012l2.043,7.845l-6.009-6.259l-1.635-0.511c-3.794,1.399-7.628,2.812-10.187,3.753
		C142.02,195.17,190.769,241.104,198.172,261.552"/>
	<path clip-path="url(#SVGID_2_)" fill="#141414" d="M157.808,199.684l4.289-2.203c0,0,4.738,4.262,5.267,5.304
		c0,0-5.569,3.639-6.626,3.374L157.808,199.684z"/>
	<polygon clip-path="url(#SVGID_2_)" fill="#141414" points="171.549,225.279 161.589,205.215 166.984,202.964 183.178,220.639 
		198.172,261.551 	"/>
	<path clip-path="url(#SVGID_2_)" fill="#232728" d="M200.14,264.195c0,0,14.535,11.632,19.482,43.566
		C219.622,307.762,214.224,282.151,200.14,264.195"/>
	<path clip-path="url(#SVGID_2_)" fill="#676B6B" d="M142.02,195.17c0,0-2.015,15.089-2.015,23.549c0,0,19.846,1.234,24.763,4.231
		c0,0-3.523,7.82-5.902,13.925c0,0,35.076,23.354,39.306,24.676C198.172,261.551,185.305,236.346,142.02,195.17"/>
	<path clip-path="url(#SVGID_2_)" fill="#676B6B" d="M164.768,186.785c0,0,27.94,58.375,33.404,74.767c0,0-1.759-36.31-2.82-40.365
		c0,0-8.461-2.217-12.162-3.877c0,0,2.161-19.044,1.093-20.699C184.283,196.61,168.82,189.045,164.768,186.785"/>
	<path clip-path="url(#SVGID_2_)" fill="#FFFFFF" d="M138.672,186.111c0,0,12.526,5.817,15.17,5.817v12.162
		c0,0-14.23-5.573-16.634-7.149C137.208,196.94,138.044,187.962,138.672,186.111"/>
	<polygon clip-path="url(#SVGID_2_)" fill="#FFFFFF" points="157.808,190.341 167.364,196.158 164.768,186.785 157.808,181.616 	"/>
	<path clip-path="url(#SVGID_2_)" fill="#232728" d="M177.744,326.849c0,0,31.536-9.935,41.878-10.655v-8.432
		c0,0,5.397,4.278,7.794,8.056c0,0,12.937-1.631,19.696,1.488c0,0-15.367-1.909-21.649,0l-4.411-5.604l-0.094,5.766
		C220.958,317.467,191.863,323.227,177.744,326.849"/>
	<path clip-path="url(#SVGID_2_)" fill="#232728" d="M205.889,278.317c0.924,1.932,0.538,4.041-0.863,4.711
		c-1.401,0.67-3.286-0.354-4.21-2.285c-0.924-1.932-0.538-4.041,0.863-4.711S204.965,276.385,205.889,278.317"/>
	<path clip-path="url(#SVGID_2_)" fill="#232728" d="M212.56,295.95c0.65,2.041-0.022,4.077-1.501,4.549
		c-1.48,0.472-3.206-0.801-3.857-2.841c-0.65-2.041,0.022-4.077,1.502-4.549C210.183,292.639,211.91,293.91,212.56,295.95"/>
	<path clip-path="url(#SVGID_2_)" fill="#FFDCB8" d="M152.344,296.628c-0.783-3.739-1.132-9.342,1.931-15.157
		c0,0,1.066,3.95,2.437,9.923c0.45,1.963,0.522-7.543,5.874-12.568c3.755-3.525,6.327-0.177,2.628,5.465
		c-3.471,5.292-0.999,7.487-0.999,7.487s5.882-10.439,10.691-7.841c4.809,2.6-1.763,4.363-7.542,13.276
		c0,0,12.183-8.733,13.196-2.672c0.231,1.384-0.525,3.616-5.831,5.436c-4.133,1.418-7.794,9.862-12.33,11.557
		C157.864,313.226,153.42,301.768,152.344,296.628"/>
	<path clip-path="url(#SVGID_2_)" fill="#464B4C" d="M121.321,202.784c0,0-57.461,29.859-46.269,71.635
		c11.193,41.773,77.355,41.674,84.799,38.101c0,0-2.044-8.665-8.317-17.979c0,0-44.761,15.134-59.473-24.529
		c-10.527-28.382,38.019-52.813,38.019-52.813S135.07,200.421,121.321,202.784"/>
	<path clip-path="url(#SVGID_2_)" fill="#FFDCB8" d="M131.368,68.385c0,0,55.523,70.002,55.523,83.024s-52.879,27.029-59.753,26.106
		c-6.875-0.922-27.497-29.564-34.372-36.924c-6.874-7.359-23.266-22.978-25.382-32.354C65.27,98.861,101.756,46.899,131.368,68.385"
		/>
	<path clip-path="url(#SVGID_2_)" fill="#725C2B" d="M101.228,154.25c0,0,0.529-32.123-27.497-41.641
		c0,0,29.614-7.456,27.498-12.982c-2.116-5.526-9.519-3.489-9.519-3.489s24.853-5.696,23.267-13.649
		c-1.587-7.953-11.105-5.16-11.105-5.16s41.246-6.38,38.602-14.104c-2.644-7.725-12.659-14.17-19.566-7.082
		c0,0,8.99-27.046-7.931-29.708c-16.922-2.663-8.99,11.969-8.99,16.551c0,0-39.13-14.629-41.245,0
		c-2.116,14.629,9.07,14.329,15.904,13.157c0,0-45.517,19.389-34.412,47.446c0,0-28.026,6.086-21.68,15.485
		c6.345,9.399,15.121,3.588,15.121,3.588s-5.074,11.752,3.386,12.747c8.461,0.996,6.346-5.182,6.346-5.182
		S72.145,176.326,101.228,154.25"/>
	<path clip-path="url(#SVGID_2_)" fill="#CB8F5E" d="M131.897,100.8c0,0,3.173,11.809,5.817,12.338c2.644,0.529,8.46-5.817,13.219,0
		c4.76,5.817-5.816,10.361-9.518,13.112c0,0,8.316-10.028,5.817-12.725c-2.499-2.696-9.221,5.43-12.278,3.314
		C131.897,114.724,131.897,100.8,131.897,100.8"/>
	<path clip-path="url(#SVGID_2_)" fill="#493918" d="M105.986,100.8c0,0-6.345,13.105-3.173,18.274
		C102.813,119.074,93.295,110.143,105.986,100.8"/>
	<path clip-path="url(#SVGID_2_)" fill="#493918" d="M127.094,85.112c0,0,7.976-4.23,11.677,0
		C138.771,85.112,130.752,72.421,127.094,85.112"/>
	<path clip-path="url(#SVGID_2_)" fill="#190F08" d="M122.197,114.658c2.071,2.839,2.411,6.117,0.759,7.322
		c-1.652,1.204-4.669-0.12-6.74-2.959c-2.071-2.839-2.411-6.117-0.759-7.322C117.109,110.494,120.125,111.819,122.197,114.658"/>
	<path clip-path="url(#SVGID_2_)" fill="#190F08" d="M146.558,101.407c2.071,2.839,2.411,6.117,0.759,7.322
		c-1.652,1.204-4.669-0.12-6.74-2.959s-2.411-6.117-0.759-7.322C141.47,97.244,144.487,98.568,146.558,101.407"/>
	<path clip-path="url(#SVGID_2_)" fill="#FFDCB8" d="M101.228,145.697c0,0-16.921-3.608-20.094,5.712
		c-3.173,9.32,9.764,25.721,20.094,18.838C111.557,163.365,109.688,150.802,101.228,145.697"/>
	<path clip-path="url(#SVGID_2_)" fill="#EDA69D" d="M131.995,150.172c-0.487,5.444-0.098,10.063-0.098,10.063
		c5.376-1.779,20.255-1.981,29.621-1.917C146.634,149.645,141.098,149.029,131.995,150.172"/>
	<path clip-path="url(#SVGID_2_)" fill="#753427" d="M142.595,132.839c-7.538,0.553-9.921,9.746-10.6,17.333
		c9.103-1.143,14.639-0.433,29.524,8.145c4.715,0.033,8.04,0.132,8.04,0.132S155.542,131.889,142.595,132.839"/>
</g>
</svg>
