<?xml version="1.0" encoding="utf-8"?>
<!-- Generator: Adobe Illustrator 16.0.0, SVG Export Plug-In . SVG Version: 6.00 Build 0)  -->
<!DOCTYPE svg PUBLIC "-//W3C//DTD SVG 1.1//EN" "http://www.w3.org/Graphics/SVG/1.1/DTD/svg11.dtd">
<svg version="1.1" id="Calque_1" xmlns="http://www.w3.org/2000/svg" xmlns:xlink="http://www.w3.org/1999/xlink" x="0px" y="0px"
	 width="150px" height="150px" viewBox="0 0 150 150" enable-background="new 0 0 150 150" xml:space="preserve">
<g>
	<g>
		<path fill="#3D4F97" d="M125.26,27.212c0-4.697-3.811-8.506-8.51-8.506H33.245c-4.699,0-8.505,3.809-8.505,8.506v30.834h100.52
			V27.212z"/>
		<path fill="#3D4F97" d="M24.74,55.046v69.487c0,3.736,3.807,6.761,8.505,6.761h83.505c4.699,0,8.51-3.024,8.51-6.761V55.046H24.74
			z"/>
		<path fill="#E7B116" d="M51.457,81.289c0,1.301-1.054,2.354-2.352,2.354H36.631c-1.298,0-2.353-1.053-2.353-2.354V68.816
			c0-1.3,1.055-2.351,2.353-2.351h12.474c1.298,0,2.352,1.051,2.352,2.351V81.289z"/>
		<path fill="#FFFFFF" d="M117.736,46.623c0,1.384-1.125,2.503-2.506,2.503H34.766c-1.38,0-2.501-1.119-2.501-2.503v-13.26
			c0-1.384,1.121-2.502,2.501-2.502h80.464c1.381,0,2.506,1.118,2.506,2.502V46.623z"/>
		<path fill="#E7B116" d="M72.746,81.289c0,1.301-1.055,2.354-2.354,2.354H57.92c-1.302,0-2.356-1.053-2.356-2.354V68.816
			c0-1.3,1.054-2.351,2.356-2.351h12.471c1.3,0,2.354,1.051,2.354,2.351V81.289z"/>
		<path fill="#E7B116" d="M94.033,81.289c0,1.301-1.057,2.354-2.354,2.354H79.207c-1.299,0-2.352-1.053-2.352-2.354V68.816
			c0-1.3,1.053-2.351,2.352-2.351H91.68c1.297,0,2.354,1.051,2.354,2.351V81.289z"/>
		<path fill="#FFFFFF" d="M115.32,80.744V70.158c0-1.993-1.055-3.618-2.354-3.618h-12.471c-1.299,0-2.354,1.625-2.354,3.618v10.597
			v8.571v30.855c0,2.002,1.055,3.617,2.354,3.617h12.471c1.299,0,2.354-1.615,2.354-3.617V80.755
			C115.32,80.747,115.32,80.744,115.32,80.744z"/>
		<path fill="#E7B116" d="M52.123,101.621c0,1.301-1.054,2.354-2.352,2.354H37.298c-1.298,0-2.353-1.053-2.353-2.354V89.148
			c0-1.299,1.055-2.351,2.353-2.351h12.474c1.298,0,2.352,1.052,2.352,2.351V101.621z"/>
		<path fill="#E7B116" d="M73.412,101.621c0,1.301-1.055,2.354-2.354,2.354H58.587c-1.302,0-2.356-1.053-2.356-2.354V89.148
			c0-1.299,1.054-2.351,2.356-2.351h12.471c1.299,0,2.354,1.052,2.354,2.351V101.621z"/>
		<path fill="#E7B116" d="M94.701,101.621c0,1.301-1.057,2.354-2.355,2.354H79.873c-1.299,0-2.352-1.053-2.352-2.354V89.148
			c0-1.299,1.053-2.351,2.352-2.351h12.473c1.299,0,2.355,1.052,2.355,2.351V101.621z"/>
		<path fill="#E7B116" d="M52.457,121.288c0,1.301-1.054,2.354-2.352,2.354H37.632c-1.298,0-2.353-1.053-2.353-2.354v-12.473
			c0-1.3,1.055-2.351,2.353-2.351h12.474c1.298,0,2.352,1.051,2.352,2.351V121.288z"/>
		<path fill="#E7B116" d="M73.746,121.288c0,1.301-1.055,2.354-2.354,2.354H58.921c-1.302,0-2.356-1.053-2.356-2.354v-12.473
			c0-1.3,1.054-2.351,2.356-2.351h12.471c1.299,0,2.354,1.051,2.354,2.351V121.288z"/>
		<path fill="#E7B116" d="M95.035,121.288c0,1.301-1.057,2.354-2.355,2.354H80.207c-1.299,0-2.352-1.053-2.352-2.354v-12.473
			c0-1.3,1.053-2.351,2.352-2.351H92.68c1.299,0,2.355,1.051,2.355,2.351V121.288z"/>
	</g>
</g>
</svg>
