<?xml version="1.0" encoding="utf-8"?>
<!-- Generator: Adobe Illustrator 22.0.1, SVG Export Plug-In . SVG Version: 6.00 Build 0)  -->
<svg version="1.1" id="Capa_1" xmlns="http://www.w3.org/2000/svg" xmlns:xlink="http://www.w3.org/1999/xlink" x="0px" y="0px"
	 viewBox="0 0 512 512" style="enable-background:new 0 0 512 512;" xml:space="preserve">
<style type="text/css">
	.st0{fill:#E7B116;}
</style>
<g>
	<path class="st0" d="M453.2,116.7c-3.7-5.2-7.5-10.3-11.6-15.1C397.3,48.3,330.5,14.4,256,14.4c-0.1,0-0.2,0-0.4,0
		c-0.1,0-0.1,0-0.2,0c-0.3,0-0.5,0-0.8,0c-74,0.4-140.1,34.3-184.2,87.1c-4.1,4.9-7.9,9.9-11.6,15.1C30.9,156.1,14.4,204.1,14.4,256
		c0,51.9,16.5,99.9,44.4,139.3c3.7,5.2,7.5,10.3,11.6,15.1c44.1,52.9,110.2,86.7,184.2,87.1c0.3,0,0.6,0,0.8,0c0.1,0,0.1,0,0.2,0
		c0.1,0,0.2,0,0.4,0c74.5,0,141.3-33.9,185.6-87.2c4.1-4.9,7.9-10,11.6-15.1c27.9-39.4,44.4-87.5,44.4-139.3
		C497.6,204.1,481.1,156.1,453.2,116.7z M185.4,45.8c-22.2,21.4-40.7,52.7-53.4,90.3c-17-6.4-32.4-14-45.6-22.7
		C112.3,82.6,146.4,58.9,185.4,45.8z M74.8,128.6c15,10,32.4,18.8,51.6,26c-8.3,30.3-13,63.9-13.2,99.3H34.2
		C34.7,207.3,49.7,164.2,74.8,128.6z M35,273.8h78.5c1.3,29.7,5.8,57.8,12.8,83.6c-19.2,7.2-36.6,16-51.6,26
		C52.5,351.9,38.2,314.4,35,273.8z M86.4,398.5c13.2-8.6,28.5-16.3,45.5-22.7c12.7,37.6,31.2,68.9,53.4,90.3
		C146.4,453.1,112.4,429.3,86.4,398.5z M246.1,477.1c-40.7-5.6-75.8-47.3-95.7-107.4c28.7-8.6,61.2-13.8,95.7-14.7V477.1z
		 M246.1,335.2c-36.4,0.9-70.7,6.5-101.3,15.9c-6.3-23.8-10.3-49.8-11.5-77.3h112.7V335.2z M246.1,254H133c0.2-33.3,4.5-64.8,12-93
		c30.5,9.3,64.8,15,101.2,15.8L246.1,254L246.1,254z M246.1,157c-34.5-0.8-67-6-95.6-14.6c19.9-60.1,55-101.8,95.6-107.4V157z
		 M477.7,254h-80c-0.2-35.3-4.9-68.8-13.1-98.9c19.6-7.3,37.4-16.2,52.6-26.4C462.3,164.2,477.3,207.3,477.7,254z M425.6,113.4
		c-13.5,8.8-29.2,16.6-46.6,23c-12.8-38.1-31.6-69.8-54.1-91.3C364.5,58.2,399.3,82.2,425.6,113.4z M265.9,35.1
		c40.2,6.2,74.9,47.9,94.6,107.6c-28.4,8.4-60.5,13.5-94.6,14.3V35.1z M265.9,176.8c35.9-0.9,69.8-6.4,100.1-15.5
		c7.4,28.2,11.7,59.5,11.9,92.7h-112V176.8z M265.9,273.8h111.6c-1.2,27.4-5.2,53.3-11.4,77c-30.3-9.2-64.2-14.7-100.2-15.5
		L265.9,273.8L265.9,273.8z M265.9,476.9V355c34.1,0.8,66.2,5.9,94.6,14.3C340.8,429.1,306.1,470.7,265.9,476.9z M324.9,466.8
		c22.6-21.5,41.3-53.2,54.2-91.3c17.4,6.4,33.1,14.2,46.5,23C399.2,429.8,364.5,453.8,324.9,466.8z M437.2,383.4
		c-15.3-10.2-33-19.1-52.6-26.4c7-25.7,11.4-53.7,12.7-83.2H477C473.8,314.4,459.5,351.9,437.2,383.4z"/>
</g>
</svg>
