<?xml version="1.0" encoding="utf-8"?>
<!-- Generator: Adobe Illustrator 19.2.0, SVG Export Plug-In . SVG Version: 6.00 Build 0)  -->
<svg version="1.1" id="Capa_1" xmlns="http://www.w3.org/2000/svg" xmlns:xlink="http://www.w3.org/1999/xlink" x="0px" y="0px"
	 viewBox="0 0 512 512" style="enable-background:new 0 0 512 512;" xml:space="preserve">
<style type="text/css">
	.st0{fill:#E7B116;}
</style>
<g>
	<g id="Link">
		<g>
			<path class="st0" d="M293,180.3c-5.6-3.6-12.1-4.6-18.2-3.2c-6,1.3-11.4,4.9-15,10.5c-3.6,5.6-4.6,12.1-3.2,18.1
				c1.3,6,4.9,11.5,10.5,15.1c23.2,14.8,37,40,37,67.3c0,21.4-8.3,41.5-23.4,56.6l-96,96C169.5,455.7,149.4,464,128,464
				c-44.1,0-80-35.9-80-80c0-21.4,8.3-41.5,23.4-56.6l45.5-45.6c4.8-4.8,7.1-11.1,7-17.4c-0.1-6-2.4-12-7-16.5c-4.7-4.7-10.8-7-17-7
				c-6.1,0-12.3,2.3-17,7l-45.5,45.6C13.3,317.7,0,349.8,0,384c0,70.6,57.4,128,128,128c34.2,0,66.3-13.3,90.5-37.5l96-96
				c24.2-24.1,37.5-56.3,37.5-90.5C352,244.2,329.9,204,293,180.3z M384,0c-34.2,0-66.3,13.3-90.5,37.5l-96,96
				C173.3,157.6,160,189.8,160,224c0,43.8,22.1,84,59,107.8c5.6,3.6,12.1,4.6,18.2,3.2c6-1.3,11.4-4.9,15-10.5
				c3.6-5.6,4.6-12.1,3.2-18.1c-1.3-6-4.9-11.5-10.5-15.1c-23.1-14.8-37-40-37-67.4c0-21.4,8.3-41.5,23.4-56.6l96-96
				C342.5,56.3,362.6,48,384,48c44.1,0,80,35.9,80,80c0,21.4-8.3,41.5-23.4,56.6L395,230.1c-4.8,4.8-7.1,11.1-7,17.4
				c0.1,6,2.4,12,7,16.5c4.7,4.7,10.8,7,17,7c6.1,0,12.3-2.3,17-7l45.5-45.6c24.2-24.1,37.5-56.3,37.5-90.5C512,57.4,454.6,0,384,0z
				"/>
		</g>
	</g>
</g>
</svg>
