<?xml version="1.0" encoding="utf-8"?>
<!-- Generator: Adobe Illustrator 16.0.0, SVG Export Plug-In . SVG Version: 6.00 Build 0)  -->
<!DOCTYPE svg PUBLIC "-//W3C//DTD SVG 1.1//EN" "http://www.w3.org/Graphics/SVG/1.1/DTD/svg11.dtd">
<svg version="1.1" id="Calque_1" xmlns="http://www.w3.org/2000/svg" xmlns:xlink="http://www.w3.org/1999/xlink" x="0px" y="0px"
	 width="150px" height="150px" viewBox="0 0 150 150" enable-background="new 0 0 150 150" xml:space="preserve">
<g>
	<path fill="#3D4F97" d="M142,126.104c0,2.789-5.123,5.049-11.443,5.049H19.443c-6.319,0-11.443-2.26-11.443-5.049l11-27.451
		c0-2.788,5.124-5.049,11.443-5.049h90.114c6.32,0,11.443,2.261,11.443,5.049L142,126.104z"/>
	<g>
		<g>
			<polygon fill="#FFFFFF" points="25.714,24.225 26.355,85.834 129.681,85.514 130.322,22.617"/>
			<polygon fill="#E7B116" points="60.337,117.676 57.519,123 95.327,122.797 91.818,117.375"/>
			<g>
				<path fill="#3D4F97" d="M127.883,18.848H24.976c-3.265,0-5.896,2.646-5.896,5.902v59.609c0,3.256,2.631,5.912,5.896,5.912
					h102.907c3.272,0,5.906-2.656,5.906-5.912V24.75C133.789,21.494,131.155,18.848,127.883,18.848z M124.517,82.203H27.914V26.146
					h96.603V82.203z"/>
				<path fill="#E7B116" d="M114.699,71.479l-5.596-4.242c-0.101-0.099-0.217-0.168-0.322-0.22l3.158-3.905l-6.963-1.118L98,60.879
					l2.521,6.591l2.53,6.605l2.845-3.502c0.102,0.106,0.246,0.231,0.404,0.344l5.574,4.271c0.625,0.462,1.268,0.664,1.46,0.431
					l2.179-2.861C115.688,72.523,115.316,71.955,114.699,71.479z"/>
			</g>
		</g>
	</g>
</g>
</svg>
