<?xml version="1.0" encoding="utf-8"?>
<!-- Generator: Adobe Illustrator 19.2.0, SVG Export Plug-In . SVG Version: 6.00 Build 0)  -->
<svg version="1.1" id="Capa_1" xmlns="http://www.w3.org/2000/svg" xmlns:xlink="http://www.w3.org/1999/xlink" x="0px" y="0px"
	 viewBox="0 0 512 512" style="enable-background:new 0 0 512 512;" xml:space="preserve">
<style type="text/css">
	.st0{fill:#E7B116;}
</style>
<g>
	<g>
		<path class="st0" d="M54.3,372.6c-3.9,3.9-8.5,7-13.4,9.1v26.8v44.3c0,10.6,8.6,19.1,19.1,19.1h43.1c10.6,0,19.1-8.6,19.1-19.1
			v-44.3V352v-44.3c0-0.9-0.1-1.9-0.2-2.7L54.3,372.6z"/>
		<path class="st0" d="M500.4,95.3c-0.4,0-0.8,0-1.4,0c-29,1.4-58.1,2.7-87.1,4.1c-4.5,0.2-8.9,0.4-11.5,5.9
			c-2.5,5.4,0.3,8.4,3.5,11.6c8.9,8.9,17.8,18,26.8,26.7l-9.9,9.9l-80.4,80.4l-7.1,7.1l-17.5,17.5l-69.1,69.1l-4-4L160,240.9
			l-17.5-17.5l-4.7-4.7c-3.8-3.8-8.6-5.6-13.6-5.6s-9.8,1.9-13.6,5.6l-4.7,4.7L5.6,323.7c-7.5,7.5-7.5,19.6,0,27.1l4.7,4.7
			c3.8,3.8,8.6,5.6,13.6,5.6s9.8-1.9,13.6-5.6l86.8-86.8l4,4l82.7,82.7l17.5,17.5l4.7,4.7c3.8,3.8,8.6,5.6,13.6,5.6
			c4.9,0,9.8-1.9,13.6-5.6l4.7-4.7l82.7-82.7l17.5-17.5l7.1-7.1l80.4-80.4l9.8-9.8l26.3,26.1c2.4,2.4,4.8,5,8.3,5
			c1.3,0,2.7-0.4,4.3-1.3c5.3-2.8,6.4-7.5,6.6-12.6c1.3-28.4,2.6-56.6,4-85C512.3,99.2,508.7,95.3,500.4,95.3z"/>
		<path class="st0" d="M211.2,390.2l-17.5-17.5l-37.8-37.8c-1.7,2.8-2.6,6.2-2.6,9.7v7.6v93.3v7.6c0,10.6,8.6,19.1,19.1,19.1h43.1
			c10.6,0,19.1-8.6,19.1-19.1v-7.6V406c-6.9-2-13.3-5.8-18.6-11L211.2,390.2z"/>
		<path class="st0" d="M282.1,390.2l-4.7,4.7c-3.5,3.5-7.5,6.3-11.9,8.4v42v7.6c0,10.6,8.6,19.1,19.1,19.1h43.1
			c10.6,0,19.1-8.6,19.1-19.1v-7.6v-93.3v-7.6c0-5.3-2.1-10-5.6-13.4L282.1,390.2z"/>
		<path class="st0" d="M389.5,282.7l-7.1,7.1l-4.6,4.6v13.1v9V352v9v47.4v44.3c0,10.6,8.6,19.1,19.1,19.1h43.1
			c10.6,0,19.1-8.6,19.1-19.1v-44.3v-47.3v-9v-35.3v-9v-47.5v-44.3c0-0.8-0.1-1.7-0.2-2.5L389.5,282.7z"/>
		<g>
			<path class="st0" d="M309.9,217.6l-5.2-23.6c-0.3-1.4-1-2.4-2.2-3.1c-1.3-0.7-2.6-0.8-3.9-0.3l-0.7,0.3l-1.8,0.4
				c-0.8,0.2-1.7,0.4-2.7,0.7c-1,0.2-2.2,0.5-3.6,0.7c-1.4,0.2-2.8,0.5-4.4,0.7c-1.5,0.2-3.2,0.4-5,0.5c-1.8,0.1-3.6,0.2-5.3,0.2
				c-12.5,0-23.8-3.4-33.9-10.2c-10-6.8-17.4-15.9-22.2-27.5h57.4c1.1,0,2.1-0.4,3-1.1c0.9-0.7,1.4-1.7,1.6-2.7l3.6-16.6
				c0.3-1.5,0-2.8-0.9-4c-1-1.2-2.2-1.8-3.7-1.8h-68c-0.3-6.7-0.3-11.9,0-15.6h72.3c2.7,0,4.2-1.3,4.7-3.9l3.6-16.9
				c0.3-1.4,0-2.7-1-3.9c-0.9-1.2-2.1-1.8-3.7-1.8h-69.4c4.9-11.1,12.3-19.8,22.2-26.1c9.9-6.3,21-9.5,33.5-9.5
				c0.4-0.2,1.9-0.1,4.4,0.1c2.5,0.3,4,0.4,4.3,0.4c0.3,0,1.6,0.1,3.9,0.4c2.2,0.3,3.3,0.5,3.3,0.5l2.6,0.5c0.7,0.1,1.3,0.3,1.7,0.4
				l0.6,0.1c1.3,0.4,2.5,0.3,3.6-0.4c1.1-0.6,1.8-1.6,2.1-2.9l6.4-23.6c0.3-1.3,0.1-2.5-0.4-3.6c-0.9-1.2-1.9-1.9-3-2.2
				c-9.1-2.3-18.7-3.4-28.8-3.4c-22.1,0-41.9,6.3-59.4,19c-17.4,12.6-29.5,29.3-36.1,50.1h-14.5c-1.4,0-2.5,0.4-3.4,1.3
				c-0.9,0.9-1.3,2-1.3,3.4V110c0,1.4,0.4,2.5,1.3,3.4c0.9,0.9,2,1.3,3.4,1.3h9.9c-0.3,4.7-0.3,9.9-0.1,15.6h-9.8
				c-1.3,0-2.4,0.5-3.3,1.4c-0.9,0.9-1.4,2-1.4,3.3v16.7c0,1.3,0.5,2.4,1.4,3.3c0.9,0.9,2,1.4,3.3,1.4h14.1
				c6.2,21.8,18,39.2,35.3,52.1c17.3,12.9,37.5,19.3,60.6,19.3c1.9,0,3.8,0,5.7-0.1c1.9-0.1,3.7-0.2,5.4-0.4c1.7-0.2,3.3-0.4,5-0.7
				c1.6-0.2,3.1-0.5,4.4-0.7c1.3-0.2,2.6-0.5,3.8-0.7c1.2-0.3,2.2-0.5,3.2-0.8c0.9-0.3,1.7-0.5,2.4-0.7c0.6-0.1,1.2-0.3,1.6-0.5
				l0.7-0.1c1.1-0.4,1.9-1.1,2.5-2.2C310,219.9,310.1,218.8,309.9,217.6z"/>
		</g>
	</g>
</g>
</svg>
