<?xml version="1.0" encoding="iso-8859-1"?>
<!-- Generator: Adobe Illustrator 16.0.0, SVG Export Plug-In . SVG Version: 6.00 Build 0)  -->
<!DOCTYPE svg PUBLIC "-//W3C//DTD SVG 1.1//EN" "http://www.w3.org/Graphics/SVG/1.1/DTD/svg11.dtd">
<svg xmlns="http://www.w3.org/2000/svg" xmlns:xlink="http://www.w3.org/1999/xlink" version="1.1" id="Capa_1" x="0px" y="0px" width="512px" height="512px" viewBox="0 0 493.196 493.196" style="enable-background:new 0 0 493.196 493.196;" xml:space="preserve">
<g>
	<g>
		<path d="M196.557,250.541c-23.715,0.598-60.692,10.043-42.942,24.555c10.254,8.384,57.684,10.781,63.452,5.391    C222.836,275.096,220.272,249.941,196.557,250.541z" fill="#FFFFFF"/>
		<path d="M287.588,381.218c-14.158,4.216-27.6,6.494-40.024,6.83c-12.404-0.344-25.82-2.617-39.954-6.827    c-4.123-1.228-8.464,1.119-9.692,5.243c-1.227,4.125,1.12,8.464,5.243,9.692c15.593,4.646,30.501,7.135,44.392,7.478v0.001    c0.003,0,0.008,0,0.011,0c0.027,0,0.058,0.003,0.085,0.004v-0.008c13.891-0.342,28.799-2.831,44.391-7.478    c4.124-1.229,6.473-5.567,5.244-9.692C296.052,382.337,291.712,379.988,287.588,381.218z" fill="#FFFFFF"/>
		<path d="M298.639,250.538c-23.715-0.6-26.277,24.555-20.509,29.944c5.768,5.392,53.197,2.994,63.451-5.39    C359.333,260.581,322.354,251.136,298.639,250.538z" fill="#FFFFFF"/>
		<path d="M428.266,154.049c-0.422-0.425-0.995-0.666-1.597-0.666h-12.033c1.008-6.52,2.403-23.854-5.769-46.587    c-5.982-16.648-15.904-32.747-29.488-47.85c-15.274-16.985-31.204-33.357-58.305-47.115c-1.657-0.84-5.095-3.194-5.095,2.217    c0,5.412,0,66.326,0,66.326c0,4.696-3.805,8.501-8.5,8.501h-8.457c-4.694,0-8.499-3.805-8.499-8.501c0,0,0-68.401,0-73.813    c0-5.411-2.712-5.046-4.093-5.208c-7.979-0.931-15.586-1.318-24.008-1.352c-1.066-0.005-4.099-0.114-4.099,4.756    c0,4.87,0,75.616,0,75.616c0,4.696-3.805,8.501-8.499,8.501h-3.277l-3.181,0.004c-4.695,0-8.5-3.805-8.5-8.501    c0,0,0-70.747,0-75.617c0-4.87-3.031-4.761-4.098-4.756c-8.421,0.035-16.03,0.421-24.007,1.353    c-1.382,0.161-4.093-0.204-4.093,5.207c0,5.412,0,73.813,0,73.813c0,4.696-3.805,8.501-8.499,8.501h-8.458    c-4.694,0-8.499-3.805-8.499-8.501c0,0,0-60.914,0-66.326c0-5.412-3.439-3.058-5.095-2.217    c-27.101,13.757-43.029,30.13-58.306,47.114C100.23,74.052,90.309,90.15,84.325,106.799c-8.172,22.733-6.775,40.067-5.767,46.587    H66.527c-0.602,0-1.175,0.241-1.596,0.666c-0.422,0.427-0.656,1.003-0.648,1.602v58.357c0.012,1.091,0.806,2.014,1.882,2.189    c0.766,0.126,12.734,1.96,43.712,3.369c-0.009,0.879-0.018,1.758-0.029,2.644c-6.364-0.851-15.783-0.795-23.924,4.512    c-7.87,5.131-12.459,13.705-13.636,25.48c-3.351,33.5,8.52,78.646,16.107,94.511c3.667,7.668,9.146,10.553,13.098,11.622    c1.783,0.481,3.553,0.684,5.264,0.684c0.982,0,1.947-0.066,2.883-0.185c3.67,39.11,13.619,74.158,37.743,99.069    c11.172,11.536,25.03,20.357,41.189,26.213c15.187,5.505,32.897,8.547,52.703,9.077l10.649-0.003    c19.807-0.53,37.516-3.571,52.701-9.077c16.159-5.856,30.02-14.677,41.189-26.213c24.125-24.912,34.073-59.96,37.743-99.069    c0.936,0.117,1.899,0.185,2.884,0.185c1.711,0,3.479-0.202,5.263-0.684c3.952-1.069,9.432-3.954,13.1-11.622    c7.586-15.864,19.457-61.011,16.104-94.511c-1.176-11.775-5.765-20.349-13.636-25.48c-8.141-5.307-17.561-5.361-23.924-4.512    c-0.013-0.885-0.021-1.764-0.028-2.644c30.977-1.408,42.946-3.242,43.711-3.368c1.076-0.175,1.87-1.098,1.882-2.189v-58.358    C428.921,155.052,428.688,154.476,428.266,154.049z M108.859,260.287c-0.894,27.901-1.799,56.155-0.358,82.95    c-0.388,0.15-0.713,0.124-0.938,0.058c-0.432-0.128-0.759-0.477-2.11-3.304c-6.72-14.051-17.678-56.053-14.659-86.235    c0.682-6.819,2.901-11.511,6.594-13.945c4.516-2.975,8.06-2.613,12.142-1.859C109.34,245.249,109.103,252.67,108.859,260.287z     M356.228,384.331c-4.062,11.94-16.39,23.476-25.521,33.273c-8.224,8.822-15.327,16.441-18.986,24.72    c-7.754,17.542-28.454,26.07-63.286,26.07c-0.064,0-3.606,0.003-3.67,0.003c-34.831,0-55.532-8.528-63.285-26.07    c-3.661-8.277-10.765-15.897-18.987-24.72c-9.134-9.799-23.891-25.344-25.522-33.274c-7.534-36.269-6.127-80.23-4.744-123.297    c0.43-13.431,0.867-27.222,1.018-40.624c16.427,0.459,91.029,0.765,113.404,0.765c0,0,96.883-0.31,113.309-0.769    c0.15,13.401,0.588,27.194,1.02,40.623C362.356,304.1,363.762,348.062,356.228,384.331z M396.809,239.807    c3.691,2.434,5.913,7.126,6.594,13.945c3.02,30.183-7.938,72.184-14.659,86.235c-1.352,2.827-2.672,3.198-3.108,3.304    c-0.229,0.055-0.455,0.05-0.938-0.057c1.439-26.795,0.534-55.049-0.359-82.951c-0.243-7.616-0.479-15.037-0.669-22.334    C387.75,237.194,392.294,236.832,396.809,239.807z" fill="#FFFFFF"/>
	</g>
</g>
<g>
</g>
<g>
</g>
<g>
</g>
<g>
</g>
<g>
</g>
<g>
</g>
<g>
</g>
<g>
</g>
<g>
</g>
<g>
</g>
<g>
</g>
<g>
</g>
<g>
</g>
<g>
</g>
<g>
</g>
</svg>
